<?xml version="1.0" ?><svg height="1024" preserveAspectRatio="xMidYMid" viewBox="0 0 1024 1024" width="1024" xmlns="http://www.w3.org/2000/svg" xmlns:xlink="http://www.w3.org/1999/xlink"><defs><style>
      .cls-1, .cls-3 {
        fill: #fff;
      }

      .cls-2 {
        fill: #0077b5;
      }

      .cls-3, .cls-4, .cls-5, .cls-6, .cls-7 {
        fill-rule: evenodd;
      }

      .cls-4, .cls-5, .cls-6 {
        fill: #010101;
      }

      .cls-4 {
        opacity: 0.05;
      }

      .cls-5 {
        opacity: 0.1;
      }

      .cls-6 {
        opacity: 0.15;
      }

      .cls-7 {
        fill: #000;
        opacity: 0.2;
      }
    </style></defs><circle class="cls-1" cx="512" cy="512" r="512"/><circle class="cls-2" cx="513" cy="513" r="501"/><path class="cls-3" d="M864.000,545.670 L864.000,784.000 L725.969,784.000 L725.969,561.632 C725.969,505.770 706.005,467.648 656.042,467.648 C617.902,467.648 595.205,493.340 585.220,518.193 C581.580,527.077 580.643,539.444 580.643,551.880 L580.643,784.000 L442.566,784.000 C442.566,784.000 444.425,407.380 442.566,368.359 L580.629,368.359 L580.629,427.274 C580.349,427.714 579.986,428.190 579.721,428.617 L580.629,428.617 L580.629,427.274 C598.972,398.993 631.731,358.594 705.054,358.594 C795.896,358.594 864.000,418.001 864.000,545.670 ZM298.131,168.000 C250.897,168.000 220.000,199.016 220.000,239.799 C220.000,279.694 250.003,311.651 296.300,311.651 L297.223,311.651 C345.372,311.651 375.319,279.702 375.319,239.799 C374.410,199.016 345.372,168.000 298.131,168.000 ZM228.200,784.000 L366.224,784.000 L366.224,368.359 L228.200,368.359 L228.200,784.000 Z"/><path class="cls-4" d="M0.008,509.066 C0.003,510.043 0.000,511.021 0.000,512.000 C0.000,794.770 229.230,1024.000 512.000,1024.000 C626.613,1024.000 732.430,986.341 817.752,922.721 L0.008,509.066 Z"/><path class="cls-5" d="M0.031,517.724 C0.010,515.819 0.000,513.911 0.000,512.000 C0.000,368.971 58.648,239.640 153.208,146.743 L874.075,874.003 C856.305,891.776 837.234,908.249 817.018,923.267 L0.031,517.724 Z"/><path class="cls-6" d="M872.758,875.315 C889.442,858.747 904.991,841.039 919.279,822.316 L495.341,0.266 C359.576,4.606 237.155,61.801 147.982,151.951 L872.758,875.315 Z"/><path class="cls-7" d="M918.196,823.730 C984.551,737.396 1024.000,629.305 1024.000,512.000 C1024.000,229.230 794.770,-0.000 512.000,-0.000 C504.185,-0.000 496.410,0.175 488.680,0.522 L918.196,823.730 Z"/></svg>